<svg width="136" height="40" viewBox="0 0 136 40" fill="none" xmlns="http://www.w3.org/2000/svg">
<rect width="136" height="40" rx="4" fill="#F2F2F2"/>
<path d="M48.3827 15.25V8.02C48.4061 8.02 48.4761 8.02167 48.5927 8.025C48.7127 8.025 48.8577 8.025 49.0277 8.025C49.1977 8.02167 49.3744 8.02167 49.5577 8.025C49.7411 8.025 49.9094 8.02667 50.0627 8.03C50.9494 8.04333 51.6677 8.18833 52.2177 8.465C52.7711 8.73833 53.1761 9.13667 53.4327 9.66C53.6927 10.1833 53.8227 10.8267 53.8227 11.59C53.8227 12.39 53.6827 13.0617 53.4027 13.605C53.1261 14.1483 52.7027 14.5583 52.1327 14.835C51.5661 15.1117 50.8444 15.25 49.9677 15.25H48.3827ZM49.3327 14.455H49.9677C50.5644 14.455 51.0777 14.3633 51.5077 14.18C51.9377 13.9933 52.2677 13.6917 52.4977 13.275C52.7311 12.8583 52.8477 12.3017 52.8477 11.605C52.8477 10.9083 52.7344 10.3567 52.5077 9.95C52.2844 9.54333 51.9611 9.25333 51.5377 9.08C51.1144 8.90333 50.6044 8.815 50.0077 8.815H49.3327V14.455ZM57.1963 15.35C56.7197 15.35 56.303 15.2483 55.9463 15.045C55.593 14.8383 55.318 14.5367 55.1213 14.14C54.9247 13.7433 54.8263 13.2583 54.8263 12.685C54.8263 12.145 54.918 11.6717 55.1013 11.265C55.2847 10.8583 55.553 10.5433 55.9063 10.32C56.2597 10.0933 56.6913 9.98 57.2013 9.98C57.678 9.98 58.0913 10.085 58.4413 10.295C58.7913 10.5017 59.063 10.8067 59.2563 11.21C59.453 11.6133 59.5513 12.105 59.5513 12.685C59.5513 13.2117 59.4613 13.675 59.2813 14.075C59.1013 14.475 58.8363 14.7883 58.4863 15.015C58.1397 15.2383 57.7097 15.35 57.1963 15.35ZM57.2013 14.62C57.508 14.62 57.768 14.5417 57.9813 14.385C58.1947 14.2283 58.3563 14.0033 58.4663 13.71C58.5797 13.4167 58.6363 13.0683 58.6363 12.665C58.6363 12.295 58.5863 11.9633 58.4863 11.67C58.3897 11.3733 58.2363 11.1383 58.0263 10.965C57.8163 10.7917 57.5413 10.705 57.2013 10.705C56.888 10.705 56.623 10.7833 56.4063 10.94C56.1897 11.0933 56.0247 11.3167 55.9113 11.61C55.8013 11.9033 55.7463 12.255 55.7463 12.665C55.7463 13.0283 55.7947 13.3583 55.8913 13.655C55.9913 13.9517 56.148 14.1867 56.3613 14.36C56.578 14.5333 56.858 14.62 57.2013 14.62ZM61.8073 15.25L60.2073 10.08H61.0673L62.2473 14.055H62.3273L63.4923 10.08H64.1923L65.4023 14.045H65.4873L66.6173 10.08H67.4873L65.9173 15.25H65.0073L63.8323 11.435L62.7073 15.25H61.8073ZM68.515 15.25V10.08H69.41V10.83C69.4933 10.6867 69.6083 10.5517 69.755 10.425C69.905 10.2983 70.085 10.1967 70.295 10.12C70.5083 10.0433 70.7533 10.005 71.03 10.005C71.3567 10.005 71.6567 10.07 71.93 10.2C72.2067 10.33 72.4267 10.5333 72.59 10.81C72.7567 11.0833 72.84 11.4367 72.84 11.87V15.25H71.915V11.96C71.915 11.5567 71.8083 11.2583 71.595 11.065C71.385 10.8683 71.1117 10.77 70.775 10.77C70.5417 10.77 70.3233 10.8083 70.12 10.885C69.9167 10.9583 69.7517 11.0717 69.625 11.225C69.4983 11.375 69.435 11.565 69.435 11.795V15.25H68.515ZM75.5915 15.315C75.3115 15.315 75.0848 15.2767 74.9115 15.2C74.7415 15.1233 74.6098 15.02 74.5165 14.89C74.4265 14.76 74.3648 14.6117 74.3315 14.445C74.3015 14.275 74.2865 14.1 74.2865 13.92V7.82H75.1965V13.83C75.1965 14.09 75.2465 14.285 75.3465 14.415C75.4498 14.545 75.5932 14.6167 75.7765 14.63L76.0565 14.635V15.235C75.9798 15.2583 75.8998 15.2767 75.8165 15.29C75.7332 15.3067 75.6582 15.315 75.5915 15.315ZM79.1397 15.35C78.663 15.35 78.2464 15.2483 77.8897 15.045C77.5364 14.8383 77.2614 14.5367 77.0647 14.14C76.868 13.7433 76.7697 13.2583 76.7697 12.685C76.7697 12.145 76.8614 11.6717 77.0447 11.265C77.228 10.8583 77.4964 10.5433 77.8497 10.32C78.203 10.0933 78.6347 9.98 79.1447 9.98C79.6214 9.98 80.0347 10.085 80.3847 10.295C80.7347 10.5017 81.0064 10.8067 81.1997 11.21C81.3964 11.6133 81.4947 12.105 81.4947 12.685C81.4947 13.2117 81.4047 13.675 81.2247 14.075C81.0447 14.475 80.7797 14.7883 80.4297 15.015C80.083 15.2383 79.653 15.35 79.1397 15.35ZM79.1447 14.62C79.4514 14.62 79.7114 14.5417 79.9247 14.385C80.138 14.2283 80.2997 14.0033 80.4097 13.71C80.523 13.4167 80.5797 13.0683 80.5797 12.665C80.5797 12.295 80.5297 11.9633 80.4297 11.67C80.333 11.3733 80.1797 11.1383 79.9697 10.965C79.7597 10.7917 79.4847 10.705 79.1447 10.705C78.8314 10.705 78.5664 10.7833 78.3497 10.94C78.133 11.0933 77.968 11.3167 77.8547 11.61C77.7447 11.9033 77.6897 12.255 77.6897 12.665C77.6897 13.0283 77.738 13.3583 77.8347 13.655C77.9347 13.9517 78.0914 14.1867 78.3047 14.36C78.5214 14.5333 78.8014 14.62 79.1447 14.62ZM84.1154 15.35C83.7787 15.35 83.4821 15.2917 83.2254 15.175C82.9721 15.055 82.7721 14.8833 82.6254 14.66C82.4821 14.4367 82.4104 14.1667 82.4104 13.85C82.4104 13.2767 82.6104 12.85 83.0104 12.57C83.4104 12.29 84.0521 12.14 84.9354 12.12L85.8554 12.095V11.69C85.8554 11.3733 85.7604 11.1233 85.5704 10.94C85.3804 10.7533 85.0871 10.66 84.6904 10.66C84.3937 10.6633 84.1321 10.7333 83.9054 10.87C83.6787 11.0067 83.5337 11.23 83.4704 11.54H82.6554C82.6754 11.2033 82.7687 10.92 82.9354 10.69C83.1054 10.4567 83.3437 10.28 83.6504 10.16C83.9571 10.04 84.3187 9.98 84.7354 9.98C85.1854 9.98 85.5587 10.0433 85.8554 10.17C86.1554 10.2967 86.3787 10.4833 86.5254 10.73C86.6754 10.9767 86.7504 11.28 86.7504 11.64V15.25H85.9604L85.8904 14.28C85.6937 14.6833 85.4404 14.9633 85.1304 15.12C84.8237 15.2733 84.4854 15.35 84.1154 15.35ZM84.3904 14.685C84.5671 14.685 84.7404 14.6533 84.9104 14.59C85.0837 14.5267 85.2404 14.4417 85.3804 14.335C85.5237 14.225 85.6387 14.1033 85.7254 13.97C85.8121 13.8333 85.8554 13.6933 85.8554 13.55V12.665L85.0904 12.68C84.6937 12.6867 84.3637 12.7267 84.1004 12.8C83.8371 12.8733 83.6387 12.9883 83.5054 13.145C83.3721 13.3017 83.3054 13.5067 83.3054 13.76C83.3054 14.05 83.4071 14.2767 83.6104 14.44C83.8137 14.6033 84.0737 14.685 84.3904 14.685ZM90.0777 15.35C89.4044 15.35 88.8711 15.12 88.4777 14.66C88.0877 14.2 87.8927 13.5283 87.8927 12.645C87.8927 12.1083 87.9711 11.64 88.1277 11.24C88.2844 10.84 88.5194 10.53 88.8327 10.31C89.1461 10.09 89.5361 9.98 90.0027 9.98C90.2527 9.98 90.4727 10.0117 90.6627 10.075C90.8527 10.1383 91.0177 10.2183 91.1577 10.315C91.2977 10.4117 91.4111 10.5117 91.4977 10.615C91.5877 10.7183 91.6544 10.8133 91.6977 10.9V7.82H92.6327V15.25H91.9227L91.8227 14.19C91.7894 14.29 91.7361 14.4067 91.6627 14.54C91.5894 14.67 91.4861 14.7983 91.3527 14.925C91.2227 15.0483 91.0527 15.15 90.8427 15.23C90.6327 15.31 90.3777 15.35 90.0777 15.35ZM90.2427 14.64C90.7627 14.64 91.1344 14.4817 91.3577 14.165C91.5844 13.845 91.6977 13.3233 91.6977 12.6C91.6944 12.1967 91.6444 11.8533 91.5477 11.57C91.4511 11.2867 91.2977 11.0717 91.0877 10.925C90.8811 10.775 90.6044 10.7 90.2577 10.7C89.8344 10.7 89.4894 10.8517 89.2227 11.155C88.9561 11.4583 88.8227 11.94 88.8227 12.6C88.8227 13.2467 88.9427 13.7483 89.1827 14.105C89.4227 14.4617 89.7761 14.64 90.2427 14.64ZM98.5342 15.35C98.0576 15.35 97.6409 15.2483 97.2842 15.045C96.9309 14.8383 96.6559 14.5367 96.4592 14.14C96.2626 13.7433 96.1642 13.2583 96.1642 12.685C96.1642 12.145 96.2559 11.6717 96.4392 11.265C96.6226 10.8583 96.8909 10.5433 97.2442 10.32C97.5976 10.0933 98.0292 9.98 98.5392 9.98C99.0159 9.98 99.4292 10.085 99.7792 10.295C100.129 10.5017 100.401 10.8067 100.594 11.21C100.791 11.6133 100.889 12.105 100.889 12.685C100.889 13.2117 100.799 13.675 100.619 14.075C100.439 14.475 100.174 14.7883 99.8242 15.015C99.4776 15.2383 99.0476 15.35 98.5342 15.35ZM98.5392 14.62C98.8459 14.62 99.1059 14.5417 99.3192 14.385C99.5326 14.2283 99.6942 14.0033 99.8042 13.71C99.9176 13.4167 99.9742 13.0683 99.9742 12.665C99.9742 12.295 99.9242 11.9633 99.8242 11.67C99.7276 11.3733 99.5742 11.1383 99.3642 10.965C99.1542 10.7917 98.8792 10.705 98.5392 10.705C98.2259 10.705 97.9609 10.7833 97.7442 10.94C97.5276 11.0933 97.3626 11.3167 97.2492 11.61C97.1392 11.9033 97.0842 12.255 97.0842 12.665C97.0842 13.0283 97.1326 13.3583 97.2292 13.655C97.3292 13.9517 97.4859 14.1867 97.6992 14.36C97.9159 14.5333 98.1959 14.62 98.5392 14.62ZM102.119 15.25V10.08H103.014V10.83C103.097 10.6867 103.212 10.5517 103.359 10.425C103.509 10.2983 103.689 10.1967 103.899 10.12C104.112 10.0433 104.357 10.005 104.634 10.005C104.96 10.005 105.26 10.07 105.534 10.2C105.81 10.33 106.03 10.5333 106.194 10.81C106.36 11.0833 106.444 11.4367 106.444 11.87V15.25H105.519V11.96C105.519 11.5567 105.412 11.2583 105.199 11.065C104.989 10.8683 104.715 10.77 104.379 10.77C104.145 10.77 103.927 10.8083 103.724 10.885C103.52 10.9583 103.355 11.0717 103.229 11.225C103.102 11.375 103.039 11.565 103.039 11.795V15.25H102.119ZM112.217 15.275C111.86 15.275 111.583 15.2267 111.387 15.13C111.19 15.0333 111.052 14.89 110.972 14.7C110.895 14.51 110.857 14.2767 110.857 14V10.755H110.017V10.08H110.882L111.107 8.575H111.787V10.075H112.952V10.755H111.787V13.97C111.787 14.1533 111.805 14.2883 111.842 14.375C111.882 14.4583 111.947 14.5117 112.037 14.535C112.127 14.5583 112.253 14.57 112.417 14.57H112.982V15.19C112.918 15.2133 112.822 15.2333 112.692 15.25C112.565 15.2667 112.407 15.275 112.217 15.275ZM114.208 15.25V7.82H115.108V10.84C115.195 10.6967 115.312 10.5633 115.458 10.44C115.605 10.3133 115.783 10.2117 115.993 10.135C116.203 10.055 116.447 10.015 116.723 10.015C117.06 10.015 117.365 10.0783 117.638 10.205C117.912 10.3283 118.128 10.505 118.288 10.735C118.448 10.965 118.528 11.2383 118.528 11.555V15.25H117.603V11.74C117.603 11.43 117.497 11.1917 117.283 11.025C117.073 10.855 116.798 10.77 116.458 10.77C116.228 10.77 116.012 10.8083 115.808 10.885C115.605 10.9583 115.44 11.0717 115.313 11.225C115.19 11.375 115.128 11.5667 115.128 11.8V15.25H114.208ZM122.155 15.35C121.675 15.35 121.252 15.245 120.885 15.035C120.518 14.825 120.232 14.5233 120.025 14.13C119.818 13.7367 119.715 13.265 119.715 12.715C119.715 12.1717 119.808 11.695 119.995 11.285C120.182 10.875 120.452 10.555 120.805 10.325C121.162 10.095 121.59 9.98 122.09 9.98C122.577 9.98 122.988 10.085 123.325 10.295C123.662 10.505 123.917 10.8017 124.09 11.185C124.267 11.565 124.355 12.0167 124.355 12.54V12.88H120.65C120.65 13.2067 120.703 13.5033 120.81 13.77C120.92 14.0333 121.085 14.2433 121.305 14.4C121.525 14.5567 121.803 14.635 122.14 14.635C122.47 14.635 122.753 14.5583 122.99 14.405C123.23 14.2517 123.383 14.03 123.45 13.74H124.32C124.26 14.09 124.12 14.385 123.9 14.625C123.683 14.865 123.422 15.0467 123.115 15.17C122.812 15.29 122.492 15.35 122.155 15.35ZM120.655 12.255H123.465C123.465 11.9583 123.415 11.6917 123.315 11.455C123.215 11.215 123.062 11.0267 122.855 10.89C122.652 10.75 122.395 10.68 122.085 10.68C121.762 10.68 121.493 10.7583 121.28 10.915C121.067 11.0683 120.908 11.2667 120.805 11.51C120.702 11.75 120.652 11.9983 120.655 12.255Z" fill="#3A3A3A"/>
<path d="M49.9091 29.375L54.0931 17.807H55.7651L59.9491 29.375H58.4371L57.3011 26.207H52.5571L51.4131 29.375H49.9091ZM52.9491 24.847H56.8931L54.9251 19.255L52.9491 24.847ZM61.8285 31.951V21.103H63.3005L63.3165 22.543C63.4125 22.3723 63.5352 22.1937 63.6845 22.007C63.8392 21.8203 64.0258 21.647 64.2445 21.487C64.4685 21.327 64.7272 21.1963 65.0205 21.095C65.3192 20.9937 65.6578 20.943 66.0365 20.943C66.6978 20.943 67.2792 21.095 67.7805 21.399C68.2872 21.6977 68.6818 22.1563 68.9645 22.775C69.2472 23.3937 69.3885 24.1777 69.3885 25.127C69.3885 26.0763 69.2498 26.879 68.9725 27.535C68.7005 28.1857 68.3058 28.6817 67.7885 29.023C67.2712 29.3643 66.6472 29.535 65.9165 29.535C65.5485 29.535 65.2205 29.4817 64.9325 29.375C64.6498 29.2737 64.4018 29.1403 64.1885 28.975C63.9805 28.8043 63.8045 28.623 63.6605 28.431C63.5218 28.239 63.4072 28.055 63.3165 27.879V31.951H61.8285ZM65.6365 28.383C66.3192 28.383 66.8765 28.1243 67.3085 27.607C67.7405 27.0843 67.9565 26.2737 67.9565 25.175C67.9565 24.231 67.7592 23.4817 67.3645 22.927C66.9698 22.3723 66.3938 22.095 65.6365 22.095C64.8685 22.095 64.2872 22.3803 63.8925 22.951C63.4978 23.5163 63.3005 24.2577 63.3005 25.175C63.3005 25.767 63.3885 26.3057 63.5645 26.791C63.7405 27.2763 64.0018 27.663 64.3485 27.951C64.6952 28.239 65.1245 28.383 65.6365 28.383ZM71.3597 31.951V21.103H72.8317L72.8477 22.543C72.9437 22.3723 73.0664 22.1937 73.2157 22.007C73.3704 21.8203 73.5571 21.647 73.7757 21.487C73.9997 21.327 74.2584 21.1963 74.5517 21.095C74.8504 20.9937 75.1891 20.943 75.5677 20.943C76.2291 20.943 76.8104 21.095 77.3117 21.399C77.8184 21.6977 78.2131 22.1563 78.4957 22.775C78.7784 23.3937 78.9197 24.1777 78.9197 25.127C78.9197 26.0763 78.7811 26.879 78.5037 27.535C78.2317 28.1857 77.8371 28.6817 77.3197 29.023C76.8024 29.3643 76.1784 29.535 75.4477 29.535C75.0797 29.535 74.7517 29.4817 74.4637 29.375C74.1811 29.2737 73.9331 29.1403 73.7197 28.975C73.5117 28.8043 73.3357 28.623 73.1917 28.431C73.0531 28.239 72.9384 28.055 72.8477 27.879V31.951H71.3597ZM75.1677 28.383C75.8504 28.383 76.4077 28.1243 76.8397 27.607C77.2717 27.0843 77.4877 26.2737 77.4877 25.175C77.4877 24.231 77.2904 23.4817 76.8957 22.927C76.5011 22.3723 75.9251 22.095 75.1677 22.095C74.3997 22.095 73.8184 22.3803 73.4237 22.951C73.0291 23.5163 72.8317 24.2577 72.8317 25.175C72.8317 25.767 72.9197 26.3057 73.0957 26.791C73.2717 27.2763 73.5331 27.663 73.8797 27.951C74.2264 28.239 74.6557 28.383 75.1677 28.383ZM88.9119 29.535C88.3465 29.535 87.8105 29.4683 87.3039 29.335C86.7972 29.1963 86.3359 28.991 85.9199 28.719C85.5092 28.447 85.1679 28.111 84.8959 27.711C84.6292 27.3057 84.4612 26.8363 84.3919 26.303H85.9439C86.0399 26.7403 86.2292 27.1083 86.5119 27.407C86.7999 27.7057 87.1545 27.9297 87.5759 28.079C88.0025 28.2283 88.4692 28.303 88.9759 28.303C89.4665 28.303 89.9172 28.2257 90.3279 28.071C90.7439 27.9163 91.0772 27.6923 91.3279 27.399C91.5785 27.1003 91.7039 26.743 91.7039 26.327C91.7039 25.8683 91.5545 25.5003 91.2559 25.223C90.9572 24.9403 90.4959 24.7137 89.8719 24.543L87.4879 23.927C86.9492 23.7937 86.4719 23.607 86.0559 23.367C85.6452 23.1217 85.3225 22.8017 85.0879 22.407C84.8532 22.007 84.7359 21.511 84.7359 20.919C84.7359 20.263 84.9172 19.6923 85.2799 19.207C85.6425 18.7163 86.1332 18.3377 86.7519 18.071C87.3759 17.799 88.0799 17.663 88.8639 17.663C89.7705 17.663 90.5332 17.8203 91.1519 18.135C91.7759 18.4497 92.2479 18.863 92.5679 19.375C92.8879 19.887 93.0479 20.4337 93.0479 21.015H91.5279C91.4799 20.487 91.3252 20.071 91.0639 19.767C90.8025 19.4577 90.4772 19.2363 90.0879 19.103C89.6985 18.9643 89.2745 18.895 88.8159 18.895C87.9892 18.895 87.3625 19.0843 86.9359 19.463C86.5145 19.8363 86.3039 20.2817 86.3039 20.799C86.3039 21.2737 86.4559 21.647 86.7599 21.919C87.0639 22.191 87.5119 22.4017 88.1039 22.551L90.4239 23.151C91.1119 23.311 91.6585 23.543 92.0639 23.847C92.4745 24.151 92.7679 24.5057 92.9439 24.911C93.1252 25.311 93.2159 25.7457 93.2159 26.215C93.2159 26.855 93.0372 27.4257 92.6799 27.927C92.3225 28.4283 91.8212 28.823 91.1759 29.111C90.5359 29.3937 89.7812 29.535 88.9119 29.535ZM98.1105 29.415C97.5398 29.415 97.0972 29.3377 96.7825 29.183C96.4678 29.0283 96.2465 28.799 96.1185 28.495C95.9958 28.191 95.9345 27.8177 95.9345 27.375V22.183H94.5905V21.103H95.9745L96.3345 18.695H97.4225V21.095H99.2865V22.183H97.4225V27.327C97.4225 27.6203 97.4518 27.8363 97.5105 27.975C97.5745 28.1083 97.6785 28.1937 97.8225 28.231C97.9665 28.2683 98.1692 28.287 98.4305 28.287H99.3345V29.279C99.2332 29.3163 99.0785 29.3483 98.8705 29.375C98.6678 29.4017 98.4145 29.415 98.1105 29.415ZM104.39 29.535C103.628 29.535 102.961 29.3723 102.39 29.047C101.825 28.7163 101.385 28.2337 101.07 27.599C100.756 26.9643 100.598 26.1883 100.598 25.271C100.598 24.407 100.745 23.6497 101.038 22.999C101.332 22.3483 101.761 21.8443 102.326 21.487C102.892 21.1243 103.582 20.943 104.398 20.943C105.161 20.943 105.822 21.111 106.382 21.447C106.942 21.7777 107.377 22.2657 107.686 22.911C108.001 23.5563 108.158 24.343 108.158 25.271C108.158 26.1137 108.014 26.855 107.726 27.495C107.438 28.135 107.014 28.6363 106.454 28.999C105.9 29.3563 105.212 29.535 104.39 29.535ZM104.398 28.367C104.889 28.367 105.305 28.2417 105.646 27.991C105.988 27.7403 106.246 27.3803 106.422 26.911C106.604 26.4417 106.694 25.8843 106.694 25.239C106.694 24.647 106.614 24.1163 106.454 23.647C106.3 23.1723 106.054 22.7963 105.718 22.519C105.382 22.2417 104.942 22.103 104.398 22.103C103.897 22.103 103.473 22.2283 103.126 22.479C102.78 22.7243 102.516 23.0817 102.334 23.551C102.158 24.0203 102.07 24.583 102.07 25.239C102.07 25.8203 102.148 26.3483 102.302 26.823C102.462 27.2977 102.713 27.6737 103.054 27.951C103.401 28.2283 103.849 28.367 104.398 28.367ZM110.125 29.375V21.103H111.533V22.695C111.672 22.3003 111.867 21.975 112.117 21.719C112.368 21.4577 112.653 21.263 112.973 21.135C113.299 21.007 113.635 20.943 113.981 20.943C114.104 20.943 114.224 20.951 114.341 20.967C114.459 20.983 114.549 21.0097 114.613 21.047V22.479C114.533 22.4417 114.429 22.4177 114.301 22.407C114.179 22.391 114.075 22.383 113.989 22.383C113.659 22.3617 113.349 22.383 113.061 22.447C112.773 22.5057 112.52 22.6097 112.301 22.759C112.083 22.9083 111.909 23.1057 111.781 23.351C111.659 23.591 111.597 23.8843 111.597 24.231V29.375H110.125ZM119.746 29.535C118.978 29.535 118.301 29.367 117.714 29.031C117.128 28.695 116.669 28.2123 116.338 27.583C116.008 26.9537 115.842 26.199 115.842 25.319C115.842 24.4497 115.992 23.687 116.29 23.031C116.589 22.375 117.021 21.863 117.586 21.495C118.157 21.127 118.842 20.943 119.642 20.943C120.421 20.943 121.08 21.111 121.618 21.447C122.157 21.783 122.565 22.2577 122.842 22.871C123.125 23.479 123.266 24.2017 123.266 25.039V25.583H117.338C117.338 26.1057 117.424 26.5803 117.594 27.007C117.77 27.4283 118.034 27.7643 118.386 28.015C118.738 28.2657 119.184 28.391 119.722 28.391C120.25 28.391 120.704 28.2683 121.082 28.023C121.466 27.7777 121.712 27.423 121.818 26.959H123.21C123.114 27.519 122.89 27.991 122.538 28.375C122.192 28.759 121.773 29.0497 121.282 29.247C120.797 29.439 120.285 29.535 119.746 29.535ZM117.346 24.583H121.842C121.842 24.1083 121.762 23.6817 121.602 23.303C121.442 22.919 121.197 22.6177 120.866 22.399C120.541 22.175 120.13 22.063 119.634 22.063C119.117 22.063 118.688 22.1883 118.346 22.439C118.005 22.6843 117.752 23.0017 117.586 23.391C117.421 23.775 117.341 24.1723 117.346 24.583Z" fill="#3A3A3A"/>
<path fill-rule="evenodd" clip-rule="evenodd" d="M24.0833 6.625C22.8976 6.67565 21.4608 7.42943 20.6105 8.44284C19.8461 9.34283 19.1788 10.7792 19.3587 12.1564C20.6826 12.2618 22.0315 11.472 22.8556 10.4581C23.678 9.44232 24.2348 8.03269 24.0833 6.625ZM23.7482 30.593C25.3548 30.5625 26.3723 29.1084 27.3561 27.6454C28.434 26.0428 28.91 24.489 28.9809 24.2573C28.9849 24.2444 28.9876 24.2356 28.9891 24.2311C28.9883 24.2308 28.9863 24.23 28.9831 24.2286C28.8286 24.1647 25.8549 22.9344 25.8253 19.3779C25.7963 16.441 28.0978 14.9801 28.3512 14.8192C28.36 14.8136 28.3663 14.8096 28.37 14.8071C26.9847 12.7456 24.8276 12.4629 24.0591 12.4306C22.9364 12.3151 21.8473 12.7518 20.9574 13.1086C20.3918 13.3353 19.9068 13.5298 19.5447 13.5298C19.1418 13.5298 18.6434 13.3285 18.0842 13.1027C17.3522 12.807 16.5158 12.4692 15.6523 12.4854C13.6523 12.5159 11.8067 13.6699 10.7768 15.4939C8.69683 19.1666 10.2434 24.6089 12.2696 27.5868C13.2615 29.0433 14.4408 30.6825 15.9919 30.6235C16.6844 30.5952 17.1772 30.3816 17.6869 30.1607C18.276 29.9055 18.8876 29.6405 19.8559 29.6405C20.7781 29.6405 21.3614 29.8973 21.9224 30.1443C22.459 30.3806 22.9752 30.6079 23.7482 30.593Z" fill="#565656"/>
</svg>
