<svg width="136" height="40" viewBox="0 0 136 40" fill="none" xmlns="http://www.w3.org/2000/svg">
<rect width="136" height="40" rx="4" fill="#F2F2F2"/>
<g clip-path="url(#clip0_11684_2495)">
<path d="M94.7123 32.451V21.603H96.1843L96.2003 23.043C96.2963 22.8723 96.4189 22.6937 96.5683 22.507C96.7229 22.3203 96.9096 22.147 97.1283 21.987C97.3523 21.827 97.6109 21.6963 97.9043 21.595C98.2029 21.4937 98.5416 21.443 98.9203 21.443C99.5816 21.443 100.163 21.595 100.664 21.899C101.171 22.1977 101.566 22.6563 101.848 23.275C102.131 23.8937 102.272 24.6777 102.272 25.627C102.272 26.5763 102.134 27.379 101.856 28.035C101.584 28.6857 101.19 29.1817 100.672 29.523C100.155 29.8643 99.5309 30.035 98.8003 30.035C98.4323 30.035 98.1043 29.9817 97.8163 29.875C97.5336 29.7737 97.2856 29.6403 97.0723 29.475C96.8643 29.3043 96.6883 29.123 96.5443 28.931C96.4056 28.739 96.2909 28.555 96.2003 28.379V32.451H94.7123ZM98.5203 28.883C99.2029 28.883 99.7603 28.6243 100.192 28.107C100.624 27.5843 100.84 26.7737 100.84 25.675C100.84 24.731 100.643 23.9817 100.248 23.427C99.8536 22.8723 99.2776 22.595 98.5203 22.595C97.7523 22.595 97.1709 22.8803 96.7763 23.451C96.3816 24.0163 96.1843 24.7577 96.1843 25.675C96.1843 26.267 96.2723 26.8057 96.4483 27.291C96.6243 27.7763 96.8856 28.163 97.2323 28.451C97.5789 28.739 98.0083 28.883 98.5203 28.883ZM106.332 29.979C105.884 29.979 105.521 29.9177 105.244 29.795C104.972 29.6723 104.761 29.507 104.612 29.299C104.468 29.091 104.369 28.8537 104.316 28.587C104.268 28.315 104.244 28.035 104.244 27.747V17.987H105.7V27.603C105.7 28.019 105.78 28.331 105.94 28.539C106.105 28.747 106.334 28.8617 106.628 28.883L107.076 28.891V29.851C106.953 29.8883 106.825 29.9177 106.692 29.939C106.558 29.9657 106.438 29.979 106.332 29.979ZM111.329 30.035C110.79 30.035 110.316 29.9417 109.905 29.755C109.5 29.563 109.18 29.2883 108.945 28.931C108.716 28.5737 108.601 28.1417 108.601 27.635C108.601 26.7177 108.921 26.035 109.561 25.587C110.201 25.139 111.228 24.899 112.641 24.867L114.113 24.827V24.179C114.113 23.6723 113.961 23.2723 113.657 22.979C113.353 22.6803 112.884 22.531 112.249 22.531C111.774 22.5363 111.356 22.6483 110.993 22.867C110.63 23.0857 110.398 23.443 110.297 23.939H108.993C109.025 23.4003 109.174 22.947 109.441 22.579C109.713 22.2057 110.094 21.923 110.585 21.731C111.076 21.539 111.654 21.443 112.321 21.443C113.041 21.443 113.638 21.5443 114.113 21.747C114.593 21.9497 114.95 22.2483 115.185 22.643C115.425 23.0377 115.545 23.523 115.545 24.099V29.875H114.281L114.169 28.323C113.854 28.9683 113.449 29.4163 112.953 29.667C112.462 29.9123 111.921 30.035 111.329 30.035ZM111.769 28.971C112.052 28.971 112.329 28.9203 112.601 28.819C112.878 28.7177 113.129 28.5817 113.353 28.411C113.582 28.235 113.766 28.0403 113.905 27.827C114.044 27.6083 114.113 27.3843 114.113 27.155V25.739L112.889 25.763C112.254 25.7737 111.726 25.8377 111.305 25.955C110.884 26.0723 110.566 26.2563 110.353 26.507C110.14 26.7577 110.033 27.0857 110.033 27.491C110.033 27.955 110.196 28.3177 110.521 28.579C110.846 28.8403 111.262 28.971 111.769 28.971ZM118.411 32.515C117.926 32.515 117.593 32.4803 117.411 32.411C117.23 32.3417 117.139 32.307 117.139 32.307V31.347L117.987 31.363C118.291 31.3737 118.545 31.3523 118.747 31.299C118.95 31.2457 119.113 31.1737 119.235 31.083C119.358 30.9923 119.451 30.891 119.515 30.779C119.585 30.667 119.641 30.5603 119.683 30.459L119.971 29.675L116.739 21.603H118.235L120.675 27.987L123.099 21.603H124.547L121.067 30.499C120.849 31.0217 120.606 31.4297 120.339 31.723C120.078 32.0163 119.785 32.2217 119.459 32.339C119.139 32.4563 118.79 32.515 118.411 32.515Z" fill="#3A3A3A"/>
<path d="M53.7548 13.25V6.02C53.7781 6.02 53.8481 6.02167 53.9648 6.025C54.0848 6.025 54.2298 6.025 54.3998 6.025C54.5698 6.02167 54.7465 6.02167 54.9298 6.025C55.1131 6.025 55.2815 6.02667 55.4348 6.03C56.3215 6.04333 57.0398 6.18833 57.5898 6.465C58.1431 6.73833 58.5481 7.13667 58.8048 7.66C59.0648 8.18333 59.1948 8.82667 59.1948 9.59C59.1948 10.39 59.0548 11.0617 58.7748 11.605C58.4981 12.1483 58.0748 12.5583 57.5048 12.835C56.9381 13.1117 56.2165 13.25 55.3398 13.25H53.7548ZM54.7048 12.455H55.3398C55.9365 12.455 56.4498 12.3633 56.8798 12.18C57.3098 11.9933 57.6398 11.6917 57.8698 11.275C58.1031 10.8583 58.2198 10.3017 58.2198 9.605C58.2198 8.90833 58.1065 8.35667 57.8798 7.95C57.6565 7.54333 57.3331 7.25333 56.9098 7.08C56.4865 6.90333 55.9765 6.815 55.3798 6.815H54.7048V12.455ZM62.5684 13.35C62.0917 13.35 61.6751 13.2483 61.3184 13.045C60.9651 12.8383 60.6901 12.5367 60.4934 12.14C60.2967 11.7433 60.1984 11.2583 60.1984 10.685C60.1984 10.145 60.2901 9.67167 60.4734 9.265C60.6567 8.85833 60.9251 8.54333 61.2784 8.32C61.6317 8.09333 62.0634 7.98 62.5734 7.98C63.0501 7.98 63.4634 8.085 63.8134 8.295C64.1634 8.50167 64.4351 8.80667 64.6284 9.21C64.8251 9.61333 64.9234 10.105 64.9234 10.685C64.9234 11.2117 64.8334 11.675 64.6534 12.075C64.4734 12.475 64.2084 12.7883 63.8584 13.015C63.5117 13.2383 63.0817 13.35 62.5684 13.35ZM62.5734 12.62C62.8801 12.62 63.1401 12.5417 63.3534 12.385C63.5667 12.2283 63.7284 12.0033 63.8384 11.71C63.9517 11.4167 64.0084 11.0683 64.0084 10.665C64.0084 10.295 63.9584 9.96333 63.8584 9.67C63.7617 9.37333 63.6084 9.13833 63.3984 8.965C63.1884 8.79167 62.9134 8.705 62.5734 8.705C62.2601 8.705 61.9951 8.78333 61.7784 8.94C61.5617 9.09333 61.3967 9.31667 61.2834 9.61C61.1734 9.90333 61.1184 10.255 61.1184 10.665C61.1184 11.0283 61.1667 11.3583 61.2634 11.655C61.3634 11.9517 61.5201 12.1867 61.7334 12.36C61.9501 12.5333 62.2301 12.62 62.5734 12.62ZM67.1793 13.25L65.5793 8.08H66.4393L67.6193 12.055H67.6993L68.8643 8.08H69.5643L70.7743 12.045H70.8593L71.9893 8.08H72.8593L71.2893 13.25H70.3793L69.2043 9.435L68.0793 13.25H67.1793ZM73.8871 13.25V8.08H74.7821V8.83C74.8654 8.68667 74.9804 8.55167 75.1271 8.425C75.2771 8.29833 75.4571 8.19667 75.6671 8.12C75.8804 8.04333 76.1254 8.005 76.4021 8.005C76.7287 8.005 77.0287 8.07 77.3021 8.2C77.5787 8.33 77.7987 8.53333 77.9621 8.81C78.1287 9.08333 78.2121 9.43667 78.2121 9.87V13.25H77.2871V9.96C77.2871 9.55667 77.1804 9.25833 76.9671 9.065C76.7571 8.86833 76.4837 8.77 76.1471 8.77C75.9137 8.77 75.6954 8.80833 75.4921 8.885C75.2887 8.95833 75.1237 9.07167 74.9971 9.225C74.8704 9.375 74.8071 9.565 74.8071 9.795V13.25H73.8871ZM80.9636 13.315C80.6836 13.315 80.4569 13.2767 80.2836 13.2C80.1136 13.1233 79.9819 13.02 79.8886 12.89C79.7986 12.76 79.7369 12.6117 79.7036 12.445C79.6736 12.275 79.6586 12.1 79.6586 11.92V5.82H80.5686V11.83C80.5686 12.09 80.6186 12.285 80.7186 12.415C80.8219 12.545 80.9652 12.6167 81.1486 12.63L81.4286 12.635V13.235C81.3519 13.2583 81.2719 13.2767 81.1886 13.29C81.1052 13.3067 81.0302 13.315 80.9636 13.315ZM84.5118 13.35C84.0351 13.35 83.6184 13.2483 83.2618 13.045C82.9084 12.8383 82.6334 12.5367 82.4368 12.14C82.2401 11.7433 82.1418 11.2583 82.1418 10.685C82.1418 10.145 82.2334 9.67167 82.4168 9.265C82.6001 8.85833 82.8684 8.54333 83.2218 8.32C83.5751 8.09333 84.0068 7.98 84.5168 7.98C84.9934 7.98 85.4068 8.085 85.7568 8.295C86.1068 8.50167 86.3784 8.80667 86.5718 9.21C86.7684 9.61333 86.8668 10.105 86.8668 10.685C86.8668 11.2117 86.7768 11.675 86.5968 12.075C86.4168 12.475 86.1518 12.7883 85.8018 13.015C85.4551 13.2383 85.0251 13.35 84.5118 13.35ZM84.5168 12.62C84.8234 12.62 85.0834 12.5417 85.2968 12.385C85.5101 12.2283 85.6718 12.0033 85.7818 11.71C85.8951 11.4167 85.9518 11.0683 85.9518 10.665C85.9518 10.295 85.9018 9.96333 85.8018 9.67C85.7051 9.37333 85.5518 9.13833 85.3418 8.965C85.1318 8.79167 84.8568 8.705 84.5168 8.705C84.2034 8.705 83.9384 8.78333 83.7218 8.94C83.5051 9.09333 83.3401 9.31667 83.2268 9.61C83.1168 9.90333 83.0618 10.255 83.0618 10.665C83.0618 11.0283 83.1101 11.3583 83.2068 11.655C83.3068 11.9517 83.4634 12.1867 83.6768 12.36C83.8934 12.5333 84.1734 12.62 84.5168 12.62ZM89.4875 13.35C89.1508 13.35 88.8541 13.2917 88.5975 13.175C88.3441 13.055 88.1441 12.8833 87.9975 12.66C87.8541 12.4367 87.7825 12.1667 87.7825 11.85C87.7825 11.2767 87.9825 10.85 88.3825 10.57C88.7825 10.29 89.4241 10.14 90.3075 10.12L91.2275 10.095V9.69C91.2275 9.37333 91.1325 9.12333 90.9425 8.94C90.7525 8.75333 90.4591 8.66 90.0625 8.66C89.7658 8.66333 89.5041 8.73333 89.2775 8.87C89.0508 9.00667 88.9058 9.23 88.8425 9.54H88.0275C88.0475 9.20333 88.1408 8.92 88.3075 8.69C88.4775 8.45667 88.7158 8.28 89.0225 8.16C89.3291 8.04 89.6908 7.98 90.1075 7.98C90.5575 7.98 90.9308 8.04333 91.2275 8.17C91.5275 8.29667 91.7508 8.48333 91.8975 8.73C92.0475 8.97667 92.1225 9.28 92.1225 9.64V13.25H91.3325L91.2625 12.28C91.0658 12.6833 90.8125 12.9633 90.5025 13.12C90.1958 13.2733 89.8575 13.35 89.4875 13.35ZM89.7625 12.685C89.9391 12.685 90.1125 12.6533 90.2825 12.59C90.4558 12.5267 90.6125 12.4417 90.7525 12.335C90.8958 12.225 91.0108 12.1033 91.0975 11.97C91.1841 11.8333 91.2275 11.6933 91.2275 11.55V10.665L90.4625 10.68C90.0658 10.6867 89.7358 10.7267 89.4725 10.8C89.2091 10.8733 89.0108 10.9883 88.8775 11.145C88.7441 11.3017 88.6775 11.5067 88.6775 11.76C88.6775 12.05 88.7791 12.2767 88.9825 12.44C89.1858 12.6033 89.4458 12.685 89.7625 12.685ZM95.4498 13.35C94.7765 13.35 94.2431 13.12 93.8498 12.66C93.4598 12.2 93.2648 11.5283 93.2648 10.645C93.2648 10.1083 93.3431 9.64 93.4998 9.24C93.6565 8.84 93.8915 8.53 94.2048 8.31C94.5181 8.09 94.9081 7.98 95.3748 7.98C95.6248 7.98 95.8448 8.01167 96.0348 8.075C96.2248 8.13833 96.3898 8.21833 96.5298 8.315C96.6698 8.41167 96.7831 8.51167 96.8698 8.615C96.9598 8.71833 97.0265 8.81333 97.0698 8.9V5.82H98.0048V13.25H97.2948L97.1948 12.19C97.1615 12.29 97.1081 12.4067 97.0348 12.54C96.9615 12.67 96.8581 12.7983 96.7248 12.925C96.5948 13.0483 96.4248 13.15 96.2148 13.23C96.0048 13.31 95.7498 13.35 95.4498 13.35ZM95.6148 12.64C96.1348 12.64 96.5065 12.4817 96.7298 12.165C96.9565 11.845 97.0698 11.3233 97.0698 10.6C97.0665 10.1967 97.0165 9.85333 96.9198 9.57C96.8231 9.28667 96.6698 9.07167 96.4598 8.925C96.2531 8.775 95.9765 8.7 95.6298 8.7C95.2065 8.7 94.8615 8.85167 94.5948 9.155C94.3281 9.45833 94.1948 9.94 94.1948 10.6C94.1948 11.2467 94.3148 11.7483 94.5548 12.105C94.7948 12.4617 95.1481 12.64 95.6148 12.64ZM103.906 13.35C103.43 13.35 103.013 13.2483 102.656 13.045C102.303 12.8383 102.028 12.5367 101.831 12.14C101.635 11.7433 101.536 11.2583 101.536 10.685C101.536 10.145 101.628 9.67167 101.811 9.265C101.995 8.85833 102.263 8.54333 102.616 8.32C102.97 8.09333 103.401 7.98 103.911 7.98C104.388 7.98 104.801 8.085 105.151 8.295C105.501 8.50167 105.773 8.80667 105.966 9.21C106.163 9.61333 106.261 10.105 106.261 10.685C106.261 11.2117 106.171 11.675 105.991 12.075C105.811 12.475 105.546 12.7883 105.196 13.015C104.85 13.2383 104.42 13.35 103.906 13.35ZM103.911 12.62C104.218 12.62 104.478 12.5417 104.691 12.385C104.905 12.2283 105.066 12.0033 105.176 11.71C105.29 11.4167 105.346 11.0683 105.346 10.665C105.346 10.295 105.296 9.96333 105.196 9.67C105.1 9.37333 104.946 9.13833 104.736 8.965C104.526 8.79167 104.251 8.705 103.911 8.705C103.598 8.705 103.333 8.78333 103.116 8.94C102.9 9.09333 102.735 9.31667 102.621 9.61C102.511 9.90333 102.456 10.255 102.456 10.665C102.456 11.0283 102.505 11.3583 102.601 11.655C102.701 11.9517 102.858 12.1867 103.071 12.36C103.288 12.5333 103.568 12.62 103.911 12.62ZM107.491 13.25V8.08H108.386V8.83C108.469 8.68667 108.584 8.55167 108.731 8.425C108.881 8.29833 109.061 8.19667 109.271 8.12C109.484 8.04333 109.729 8.005 110.006 8.005C110.332 8.005 110.632 8.07 110.906 8.2C111.182 8.33 111.402 8.53333 111.566 8.81C111.732 9.08333 111.816 9.43667 111.816 9.87V13.25H110.891V9.96C110.891 9.55667 110.784 9.25833 110.571 9.065C110.361 8.86833 110.087 8.77 109.751 8.77C109.517 8.77 109.299 8.80833 109.096 8.885C108.892 8.95833 108.727 9.07167 108.601 9.225C108.474 9.375 108.411 9.565 108.411 9.795V13.25H107.491Z" fill="#3A3A3A"/>
</g>
<path fill-rule="evenodd" clip-rule="evenodd" d="M11.7891 12.6797V31.3224C11.7891 31.9712 12.1642 32.5323 12.7092 32.8L23.4974 21.9979L12.7135 11.2C12.1662 11.4668 11.7891 12.0292 11.7891 12.6797ZM15.1272 32.24L26.9186 25.4234L24.4268 22.9283L15.1272 32.24ZM30.5839 20.6941C30.9761 20.9947 31.2291 21.4683 31.2291 22.001C31.2291 22.5258 30.9837 22.993 30.6016 23.2942L28.097 24.7422L25.3561 21.9979L28.0951 19.2553L30.5839 20.6941ZM26.9168 18.5741L15.1341 11.7626L24.4268 21.0673L26.9168 18.5741Z" fill="#565656"/>
<path fill-rule="evenodd" clip-rule="evenodd" d="M45.6802 24.2283V26.0205H49.979C49.8537 27.0357 49.5153 27.7751 49.0014 28.289C48.3749 28.9156 47.3973 29.605 45.6802 29.605C43.0357 29.605 40.9677 27.4744 40.9677 24.8299C40.9677 22.1854 43.0357 20.0547 45.6802 20.0547C47.109 20.0547 48.1492 20.6187 48.9263 21.3331L50.1922 20.0673C49.1143 19.0396 47.6855 18.25 45.6802 18.25C42.0581 18.25 39 21.2078 39 24.8299C39 28.452 42.0456 31.4098 45.6802 31.4098C47.6353 31.4098 49.1143 30.7705 50.2673 29.5675C51.4579 28.3768 51.8214 26.7099 51.8214 25.3689C51.8214 24.9552 51.7839 24.5667 51.7212 24.2408L45.6802 24.2283ZM77.3764 23.8899H77.3138C76.9003 23.3886 76.0981 22.9373 75.0829 22.9373C72.9648 22.9373 71.0222 24.8048 71.0222 27.1861C71.0222 29.5548 72.9648 31.4098 75.0829 31.4098C76.0981 31.4098 76.9003 30.9586 77.3138 30.4448H77.3764V31.0588C77.3764 32.6756 76.5116 33.5404 75.1205 33.5404C73.98 33.5404 73.2782 32.7257 72.9899 32.0364L71.3731 32.7132C71.8368 33.8412 73.0775 35.2199 75.133 35.2199C77.3138 35.2199 79.1561 33.9414 79.1561 30.8081V23.2005H77.389L77.3764 23.8899ZM61.7476 27.1735C61.7476 24.7171 63.6527 22.9374 65.9964 22.9374C68.34 22.9374 70.2451 24.7296 70.2451 27.1735C70.2451 29.6175 68.34 31.4098 65.9964 31.4098C63.6527 31.4098 61.7476 29.6175 61.7476 27.1735ZM90.7994 25.6445C90.4485 24.6919 89.3707 22.9499 87.1774 22.9499C84.9966 22.9499 83.1794 24.6669 83.1794 27.1862C83.1794 29.5548 84.9715 31.4223 87.378 31.4223C89.3206 31.4223 90.4485 30.2316 90.9123 29.5423L89.4709 28.5773C88.9947 29.2791 88.3305 29.7428 87.3904 29.7428C86.4505 29.7428 85.7736 29.3041 85.335 28.4645L91 26.1207L90.7994 25.6445ZM84.7012 27.25C84.6404 25.255 86.2394 24.25 87.3969 24.25C88.2953 24.25 89.0568 24.6916 89.3004 25.3464L84.7012 27.25ZM65.9964 29.7428C64.718 29.7428 63.6026 28.6775 63.6026 27.1735C63.6026 25.6445 64.7055 24.6043 65.9964 24.6043C67.2872 24.6043 68.3902 25.6445 68.3902 27.1735C68.3778 28.6775 67.2748 29.7428 65.9964 29.7428ZM72.8896 27.1862C72.8896 28.665 73.9675 29.7428 75.2458 29.7428C76.5116 29.7428 77.5018 28.6775 77.5018 27.1862C77.5018 25.6947 76.5116 24.6043 75.2458 24.6043C73.9675 24.6043 72.8896 25.6947 72.8896 27.1862ZM52.4731 27.1735C52.4731 24.7171 54.3782 22.9374 56.7219 22.9374C59.0655 22.9374 60.9706 24.7296 60.9706 27.1735C60.9706 29.6175 59.0655 31.4098 56.7219 31.4098C54.3782 31.4098 52.4731 29.6175 52.4731 27.1735ZM56.7219 29.7428C55.4434 29.7428 54.328 28.6775 54.328 27.1735C54.328 25.6445 55.431 24.6043 56.7219 24.6043C58.0003 24.6043 59.1157 25.6445 59.1157 27.1735C59.1031 28.6775 58.0003 29.7428 56.7219 29.7428ZM82.2769 31.1591H80.4221V18.7137H82.2769V31.1591Z" fill="#565656"/>
<defs>
<clipPath id="clip0_11684_2495">
<rect width="72.0588" height="31.625" fill="white" transform="translate(53.1484 3.25)"/>
</clipPath>
</defs>
</svg>
