<svg width="32" height="32" viewBox="0 0 32 32" fill="none" xmlns="http://www.w3.org/2000/svg">
<rect x="1" y="1" width="30" height="30" rx="9" stroke="#1C8367" stroke-width="2"/>
<path d="M22.27 7H9.73003C8.25003 7 6.97003 8.11 6.76003 9.58L6.01003 14.86C5.96003 15.23 6.12003 15.6 6.42003 15.82C6.62003 15.96 6.81003 16.09 7.00003 16.21V24.01C7.00003 25.11 7.90003 26.01 9.00003 26.01H13C13.55 26.01 14 25.56 14 25.01V22.01C14 21.46 14.22 20.94 14.62 20.56C15.02 20.18 15.54 19.98 16.11 20.01C17.15 20.06 18 21.04 18 22.18V25.01C18 25.56 18.45 26.01 19 26.01H23C24.1 26.01 25 25.11 25 24.01V16C25.18 16 25.36 15.96 25.52 15.86C25.86 15.65 26.05 15.26 25.99 14.86L25.24 9.58C25.03 8.11 23.75 7 22.27 7ZM8.75003 9.86C8.82003 9.37 9.25003 9 9.74003 9H22.27C22.76 9 23.19 9.37 23.26 9.86L23.73 13.13C20.6 11.82 17.96 13.01 15.59 14.09C13.07 15.23 10.87 16.24 8.08003 14.52L8.75003 9.86ZM20 24V22.17C20 19.95 18.34 18.12 16.21 18C15.09 17.96 14.05 18.33 13.24 19.09C12.45 19.84 11.99 20.9 11.99 21.99V23.99H8.99003V17.12C9.71003 17.34 10.4 17.44 11.07 17.44C13.02 17.44 14.78 16.64 16.4 15.9C18.64 14.88 20.62 13.99 22.99 15V23.99H19.99L20 24Z" fill="#1C8367"/>
</svg>
