<svg width="62" height="24" viewBox="0 0 62 24" fill="none" xmlns="http://www.w3.org/2000/svg">
<path d="M51.7583 6.22929V3.26995C53.6268 3.17701 54.9035 1.83675 54.9977 0H57.9876C57.9252 3.45705 55.2153 6.10456 51.7583 6.22929Z" fill="#022A9A"/>
<path d="M34.7724 20.3817V23.6382H33.8076C31.637 23.6382 30.2796 22.7333 29.8577 21.0457C28.6214 22.8543 26.6623 24.0002 24.3095 24.0002C19.9684 24.0002 16.7412 20.5333 16.7412 15.95C16.7412 11.3667 19.9671 7.8999 24.3095 7.8999C26.5706 7.8999 28.471 8.95524 29.7061 10.644V8.26187H33.0824V18.9656C33.0824 19.84 33.5948 20.3829 34.4997 20.3829H34.7712L34.7724 20.3817ZM29.7073 15.95C29.7073 13.2365 27.6871 11.1564 24.9736 11.1564C22.26 11.1564 20.2105 13.2365 20.2105 15.95C20.2105 18.6636 22.2307 20.7437 24.9736 20.7437C27.7164 20.7437 29.7073 18.6636 29.7073 15.95Z" fill="#022A9A"/>
<path d="M37.5093 0H41.0972V23.638H37.5093V0Z" fill="#022A9A"/>
<path d="M61.5717 20.3817V23.6382H60.6069C58.4363 23.6382 57.0789 22.7333 56.657 21.0457C55.4207 22.8543 53.4617 24.0002 51.1089 24.0002C46.7677 24.0002 43.5405 20.5333 43.5405 15.95C43.5405 11.3667 46.7665 7.8999 51.1089 7.8999C53.3699 7.8999 55.2691 8.95524 56.5054 10.644V8.26187H59.8817V18.9656C59.8817 19.84 60.3941 20.3829 61.299 20.3829H61.5705L61.5717 20.3817ZM56.5066 15.95C56.5066 13.2365 54.4864 11.1564 51.7729 11.1564C49.0593 11.1564 47.0086 13.2365 47.0086 15.95C47.0086 18.6636 49.0288 20.7437 51.7729 20.7437C54.517 20.7437 56.5066 18.6636 56.5066 15.95Z" fill="#022A9A"/>
<path d="M7.3362 24.0002C3.05983 24.0002 0.428223 21.6828 0.428223 18.0998V8.31445H3.7801V17.0139C3.7801 19.692 5.1864 20.7791 7.34109 20.7791C9.61563 20.7791 11.1418 19.5734 11.1418 17.0139V8.31445H14.4936V18.1267C14.4936 22.0252 11.6334 24.0002 7.33742 24.0002H7.3362Z" fill="#022A9A"/>
</svg>
