<svg width="106" height="24" viewBox="0 0 106 24" fill="none" xmlns="http://www.w3.org/2000/svg">
<path d="M12.2508 24.0004C6.54675 24.0004 0.633377 19.205 0.625003 12.6478C0.622909 10.9761 1.80475 8.95996 4.03653 8.95996C6.26831 8.95996 7.35593 10.2695 7.53389 12.6478C7.81862 16.4425 9.29775 19.3547 9.58666 19.9105C9.61074 19.9556 9.62435 19.9828 9.63063 19.9964C10.5173 21.8053 12.2759 22.917 14.4438 22.917C15.8382 22.917 17.0326 22.4019 18.071 21.5258C16.2548 23.2718 14.3381 24.0004 12.2487 24.0004H12.2508Z" fill="#022A9A"/>
<path d="M25.6904 5.36084C31.3934 5.36084 37.3067 10.1562 37.3162 16.7134C37.3183 18.3851 36.1364 20.4013 33.9046 20.4013C31.6729 20.4013 30.5852 19.0917 30.4073 16.7134C30.0995 12.6099 28.4006 9.53862 28.3095 9.36485C27.4019 7.63135 25.5889 6.44428 23.4963 6.44428C22.102 6.44428 20.9076 6.9593 19.8691 7.83548C21.6853 6.08941 23.602 5.36084 25.6914 5.36084H25.6904Z" fill="#022A9A"/>
<path d="M28.3057 9.35856C27.3961 7.6282 25.5861 6.44531 23.4967 6.44531C22.1024 6.44531 20.908 6.96034 19.8696 7.83651L19.8549 7.84907C15.8205 11.4605 13.5176 18.3014 9.58789 19.9103C9.61197 19.9553 9.62558 19.9825 9.63186 19.9961C10.5185 21.805 12.2771 22.9167 14.445 22.9167C15.8394 22.9167 17.0338 22.4017 18.0722 21.5255C22.2584 17.8062 24.0976 11.2889 28.3057 9.35856Z" fill="#FF5874"/>
<path d="M95.5616 6.22944V3.27118C97.4301 3.17802 98.7072 1.83811 98.8004 0.000976562H101.79C101.727 3.45856 99.0181 6.10592 95.5605 6.23049L95.5616 6.22944Z" fill="#022A9A"/>
<path d="M78.577 20.3814V23.638H77.6118C75.4408 23.638 74.0841 22.7336 73.6622 21.0451C72.426 22.8539 70.4664 24.0002 68.1142 24.0002C63.7731 24.0002 60.5469 20.5332 60.5469 15.9503C60.5469 11.3674 63.7731 7.90039 68.1142 7.90039C70.3753 7.90039 72.2752 8.95557 73.5105 10.6441V8.26258H76.8874V18.9661C76.8874 19.8402 77.4004 20.3835 78.3048 20.3835H78.5759L78.577 20.3814ZM73.5115 15.9492C73.5115 13.2359 71.4912 11.1549 68.7779 11.1549C66.0646 11.1549 64.0139 13.2349 64.0139 15.9492C64.0139 18.6636 66.0342 20.7425 68.7779 20.7425C71.5215 20.7425 73.5115 18.6625 73.5115 15.9492Z" fill="#022A9A"/>
<path d="M81.3135 0H84.9009V23.6378H81.3135V0Z" fill="#022A9A"/>
<path d="M105.375 20.3814V23.638H104.41C102.239 23.638 100.882 22.7336 100.46 21.0451C99.2237 22.8539 97.2641 24.0002 94.913 24.0002C90.5709 24.0002 87.3457 20.5332 87.3457 15.9503C87.3457 11.3674 90.5719 7.90039 94.913 7.90039C97.1741 7.90039 99.0741 8.95557 100.309 10.6441V8.26258H103.686V18.9661C103.686 19.8402 104.199 20.3835 105.104 20.3835H105.375V20.3814ZM100.309 15.9492C100.309 13.2359 98.289 11.1549 95.5757 11.1549C92.8623 11.1549 90.8117 13.2349 90.8117 15.9492C90.8117 18.6636 92.832 20.7425 95.5757 20.7425C98.3193 20.7425 100.309 18.6625 100.309 15.9492Z" fill="#022A9A"/>
<path d="M51.1403 23.9987C46.8641 23.9987 44.2324 21.6811 44.2324 18.0979V8.31348H47.5843V17.0124C47.5843 19.6912 48.9912 20.7777 51.1455 20.7777C53.4191 20.7777 54.9454 19.5718 54.9454 17.0124V8.31348H58.2972V18.1251C58.2972 22.0245 55.4363 23.9987 51.1413 23.9987H51.1403Z" fill="#022A9A"/>
</svg>
